<?xml version="1.0" encoding="UTF-8" standalone="no"?>
<svg
   xmlns:dc="http://purl.org/dc/elements/1.1/"
   xmlns:cc="http://creativecommons.org/ns#"
   xmlns:rdf="http://www.w3.org/1999/02/22-rdf-syntax-ns#"
   xmlns:svg="http://www.w3.org/2000/svg"
   xmlns="http://www.w3.org/2000/svg"
   xmlns:sodipodi="http://sodipodi.sourceforge.net/DTD/sodipodi-0.dtd"
   xmlns:inkscape="http://www.inkscape.org/namespaces/inkscape"
   aria-hidden="true"
   focusable="false"
   data-prefix="fas"
   data-icon="glass-cheers"
   class="svg-inline--fa fa-glass-cheers fa-w-20"
   role="img"
   viewBox="0 0 640 512"
   version="1.1"
   id="svg4"
   sodipodi:docname="icon.svg"
   inkscape:version="0.92.4 5da689c313, 2019-01-14">
  <metadata
     id="metadata10">
    <rdf:RDF>
      <cc:Work
         rdf:about="">
        <dc:format>image/svg+xml</dc:format>
        <dc:type
           rdf:resource="http://purl.org/dc/dcmitype/StillImage" />
      </cc:Work>
    </rdf:RDF>
  </metadata>
  <defs
     id="defs8" />
  <sodipodi:namedview
     pagecolor="#ffffff"
     bordercolor="#666666"
     borderopacity="1"
     objecttolerance="10"
     gridtolerance="10"
     guidetolerance="10"
     inkscape:pageopacity="0"
     inkscape:pageshadow="2"
     inkscape:window-width="2560"
     inkscape:window-height="1440"
     id="namedview6"
     showgrid="false"
     inkscape:zoom="0.4609375"
     inkscape:cx="8.6779661"
     inkscape:cy="279.86441"
     inkscape:window-x="2048"
     inkscape:window-y="0"
     inkscape:window-maximized="0"
     inkscape:current-layer="svg4" />
  <path
     style="color:#000000;font-style:normal;font-variant:normal;font-weight:normal;font-stretch:normal;font-size:medium;line-height:normal;font-family:sans-serif;font-variant-ligatures:normal;font-variant-position:normal;font-variant-caps:normal;font-variant-numeric:normal;font-variant-alternates:normal;font-feature-settings:normal;text-indent:0;text-align:start;text-decoration:none;text-decoration-line:none;text-decoration-style:solid;text-decoration-color:#000000;letter-spacing:normal;word-spacing:normal;text-transform:none;writing-mode:lr-tb;direction:ltr;text-orientation:mixed;dominant-baseline:auto;baseline-shift:baseline;text-anchor:start;white-space:normal;shape-padding:0;clip-rule:nonzero;display:inline;overflow:visible;visibility:visible;opacity:1;isolation:auto;mix-blend-mode:normal;color-interpolation:sRGB;color-interpolation-filters:linearRGB;solid-color:#000000;solid-opacity:1;vector-effect:none;fill-opacity:1;fill-rule:nonzero;stroke:none;stroke-width:1;stroke-linecap:butt;stroke-linejoin:miter;stroke-miterlimit:4;stroke-dasharray:none;stroke-dashoffset:0;stroke-opacity:1;color-rendering:auto;image-rendering:auto;shape-rendering:auto;text-rendering:auto;enable-background:accumulate"
     d="M 194.30469,-0.54492188 C 182.65511,-0.85347872 171.35994,5.1645295 165.26758,15.75 L 78.666016,166.25 C 48.402595,218.86025 65.14891,284.26515 113.00391,319.36328 L 74.615234,420.43945 52.992188,411.4375 c -20.649432,-8.60393 -44.2503898,1.22359 -52.85351612,21.87109 -1.80226698,4.34665 0.21960482,9.3484 4.57031252,11.15235 L 167.00781,511.86133 c 4.34399,1.80116 9.2534,-0.22602 11.05469,-4.57031 8.50232,-20.6485 -1.22177,-44.34924 -21.87109,-52.95313 l -21.65235,-9.01367 39.08789,-102.7793 c 4.25256,0.49949 8.53824,1.25586 12.77344,1.25586 51.91341,0 99.8229,-33.24849 113.88281,-85.67187 L 320,184.5293 l 19.7168,73.59961 c 14.05991,52.42338 61.9694,85.67187 113.88281,85.67187 4.23456,0 8.51955,-0.75636 12.77148,-1.25586 l 38.99024,102.7793 -21.6543,9.01367 c -20.64879,8.60366 -30.47329,32.30511 -21.86914,52.95508 1.80393,4.34825 6.80289,6.37275 11.05469,4.56836 l 0.004,-0.002 162.39649,-67.39844 h 0.002 c 4.2436,-1.80353 6.37023,-6.70234 4.56641,-11.05274 -8.50411,-20.64899 -32.20438,-30.47294 -52.85352,-21.86914 l -21.62304,9 -38.38868,-101.07617 C 574.85083,284.26577 591.6979,218.86075 561.33398,166.25 L 474.73242,15.75 C 466.60876,1.6351408 449.2383,-4.2554233 434.11133,1.9375 h -0.002 L 320,49.257812 205.89258,1.9375 h -0.002 c -3.78174,-1.57335692 -7.70334,-2.3795855 -11.58593,-2.48242188 z m -0.0312,0.99804688 c 3.76368,0.10027272 7.56666,0.8820411 11.23437,2.4082031 L 320,50.341797 434.49023,2.8632812 C 449.16326,-3.1437954 465.99085,2.5648592 473.86719,16.25 l 86.59961,150.5 c 30.17004,52.27482 13.3447,117.28821 -34.36133,152.14648 l -0.30859,0.22461 39.01953,102.73829 22.57617,-9.39844 c 20.15003,-8.39585 43.24815,1.18078 51.54492,21.33008 1.59618,3.8496 -0.27681,8.15157 -4.0332,9.74804 h 0.004 l -162.40234,67.40039 h -0.002 c -3.74682,1.5924 -8.14614,-0.18195 -9.74219,-4.03125 -8.39585,-20.15003 1.17887,-43.25014 21.33008,-51.64648 l 22.54687,-9.38672 -39.60937,-104.41602 -0.38672,0.0449 c -4.4223,0.50253 -8.80499,1.29687 -13.04297,1.29687 -51.48659,0 -98.97593,-32.95307 -112.91602,-84.92969 L 320,180.66797 299.31641,257.87109 c -13.94009,51.97662 -61.42943,84.92969 -112.91602,84.92969 -4.23798,0 -8.62067,-0.79434 -13.04297,-1.29687 l -0.38672,-0.0449 -39.71093,104.41602 22.54882,9.38672 c 20.15068,8.39611 29.62581,31.49693 21.32813,51.64844 -1.59931,3.85326 -5.88948,5.62447 -9.74414,4.02734 h -0.002 L 5.0917969,443.53906 c -3.8492924,-1.59605 -5.62702994,-5.9943 -4.0292969,-9.84765 8.3968736,-20.1525 31.394353,-29.72615 51.544922,-21.33008 l 22.576172,9.39844 39.019526,-102.73829 -0.30859,-0.22656 C 66.189472,284.03696 49.462519,219.0252 79.533203,166.75 L 166.13281,16.25 C 172.04046,5.9854705 182.98239,0.15230684 194.27344,0.453125 Z m 5.8125,51.117187 -37.00391,64.273438 113.1543,46.9375 0.14648,-0.55273 19.01367,-71.123051 z m 239.82812,0 -95.31054,39.535157 19.16015,71.675781 0.52735,-0.21875 112.62695,-46.71875 z M 200.51367,52.830078 294.20312,91.693359 275.5625,161.41992 164.51562,115.35547 Z m 238.97266,0 35.99805,62.525392 -111.04688,46.06445 -18.64062,-69.726561 z"
     id="path2"
     inkscape:connector-curvature="0" />
</svg>
